<?xml version="1.0" encoding="iso-8859-1"?>
<!-- Generator: Adobe Illustrator 18.0.0, SVG Export Plug-In . SVG Version: 6.00 Build 0)  -->
<!DOCTYPE svg PUBLIC "-//W3C//DTD SVG 1.1//EN" "http://www.w3.org/Graphics/SVG/1.1/DTD/svg11.dtd">
<svg version="1.1" id="Capa_1" xmlns="http://www.w3.org/2000/svg" xmlns:xlink="http://www.w3.org/1999/xlink" x="0px" y="0px"
	 viewBox="20 0 800.965 458.965" style="enable-background:new 0 0 458.965 458.965;" xml:space="preserve">
<g>
	<path d="M145.547,154.773c1.561,0.915,3.308,1.373,5.057,1.373c1.683,0,3.368-0.425,4.886-1.275
		c22.49-12.595,48.076-19.253,73.993-19.253c25.917,0,51.503,6.657,73.993,19.253c3.096,1.734,6.88,1.697,9.943-0.097
		c3.062-1.795,4.943-5.078,4.943-8.627v-41.063c0-34.715-28.243-62.958-62.958-62.958h-51.842
		c-34.715,0-62.958,28.243-62.958,62.958v41.064C140.603,149.695,142.485,152.979,145.547,154.773z M160.603,105.082
		c0-23.688,19.271-42.958,42.958-42.958h51.842c23.687,0,42.958,19.271,42.958,42.958v24.937
		c-21.611-9.457-45.124-14.401-68.879-14.401c-23.754,0-47.267,4.944-68.879,14.402V105.082z"/>
	<path d="M360.486,176.354v-71.272C360.486,47.14,313.346,0,255.403,0h-51.842C145.619,0,98.479,47.14,98.479,105.082v71.271
		c-26.254,30.979-40.67,70.221-40.67,110.938c0,94.661,77.012,171.674,171.673,171.674s171.673-77.012,171.673-171.674
		C401.156,246.574,386.74,207.332,360.486,176.354z M229.482,438.965c-83.633,0-151.673-68.041-151.673-151.674
		c0-37.107,13.55-72.824,38.153-100.573c1.622-1.829,2.518-4.189,2.518-6.634v-75.002c0-46.914,38.167-85.082,85.082-85.082h51.842
		c46.915,0,85.083,38.168,85.083,85.082v75.002c0,2.445,0.896,4.805,2.518,6.634c24.603,27.748,38.152,63.466,38.152,100.573
		C381.156,370.924,313.115,438.965,229.482,438.965z"/>
	<path d="M264.306,153.33c-11.315-2.93-23.031-4.416-34.823-4.416c-5.523,0-10,4.477-10,10s4.477,10,10,10
		c10.102,0,20.131,1.271,29.81,3.777c0.841,0.218,1.684,0.322,2.514,0.322c4.448,0,8.507-2.99,9.674-7.495
		C272.864,160.172,269.652,154.715,264.306,153.33z"/>
	<path d="M302.404,169.641c-4.694-2.911-10.858-1.467-13.769,3.227c-2.911,4.693-1.466,10.858,3.227,13.769
		c35.157,21.806,56.146,59.49,56.146,100.803c0,5.523,4.477,10,10,10s10-4.477,10-10
		C368.009,239.157,343.484,195.12,302.404,169.641z"/>
	<path d="M229.482,405.966c-13.609,0-26.948-2.284-39.645-6.79c-5.203-1.846-10.921,0.875-12.769,6.08
		c-1.847,5.205,0.875,10.921,6.08,12.768c14.85,5.269,30.439,7.941,46.333,7.941c5.523,0,10-4.477,10-10
		S235.005,405.966,229.482,405.966z"/>
	<path d="M163.257,385.754c-32.749-22.107-52.3-58.86-52.3-98.314c0-5.523-4.477-10-10-10s-10,4.477-10,10
		c0,46.11,22.845,89.059,61.11,114.89c1.716,1.158,3.661,1.713,5.586,1.713c3.211,0,6.366-1.544,8.297-4.406
		C169.04,395.06,167.834,388.844,163.257,385.754z"/>
</g>
<g>
</g>
<g>
</g>
<g>
</g>
<g>
</g>
<g>
</g>
<g>
</g>
<g>
</g>
<g>
</g>
<g>
</g>
<g>
</g>
<g>
</g>
<g>
</g>
<g>
</g>
<g>
</g>
<g>
</g>
</svg>
